<svg xmlns="http://www.w3.org/2000/svg" xmlns:xlink="http://www.w3.org/1999/xlink" width="100px" height="100px" viewBox="0 0 100 100" version="1.1">
    <g id="Group_1042" data-name="Group 1042" transform="translate(113.104 322.61)">
        <path id="Path_69" data-name="Path 69" d="M-44.839-161.682l25.183-29.762h-34.57v-6.868h40.752c2.976,0,4.35,1.6,4.35,3.892a6.186,6.186,0,0,1-1.6,3.892l-23.81,28.846Z" transform="translate(-44.455 -93.848)" fill="#fff"></path>
        <path id="Path_70" data-name="Path 70" d="M176.375-201.135v25.871L150.5-200.677a5.034,5.034,0,0,0-3.892-1.374c-2.747,0-4.579,1.145-4.579,3.434V-164.5h9.157v-26.1l25.642,25.413a5.033,5.033,0,0,0,3.892,1.374c2.747,0,4.579-1.145,4.579-3.434v-33.883Z" transform="translate(-192.637 -91.026)" fill="#fff"></path>
        <path id="Path_71" data-name="Path 71" d="M-66.629-229.889A46.461,46.461,0,0,1-113.1-276.135,46.656,46.656,0,0,1-66.629-322.61a46.885,46.885,0,0,1,42.354,27.244,1.673,1.673,0,0,1-.916,2.29,1.673,1.673,0,0,1-2.289-.916,42.8,42.8,0,0,0-39.149-25.184,42.991,42.991,0,0,0-43.041,43.041,42.8,42.8,0,0,0,43.041,42.812,42.917,42.917,0,0,0,36.4-20.147,1.427,1.427,0,0,1,2.289-.458,1.427,1.427,0,0,1,.458,2.289A46.155,46.155,0,0,1-66.629-229.889Z" transform="translate(0 0)" fill="#fff"></path>
    </g>
</svg>