<svg xmlns="http://www.w3.org/2000/svg" xmlns:xlink="http://www.w3.org/1999/xlink" width="100px" height="100px" viewBox="0 0 100 100" version="1.1">
<g id="surface1">
<path style=" stroke:none;fill-rule:nonzero;fill:rgb(40.784314%,12.941176%,47.843137%);fill-opacity:1;" d="M 53 3.25 C 30.074219 3.25 11.027344 19.839844 7.203125 41.667969 C 11.609375 41.671875 15.179688 45.242188 15.179688 49.652344 C 15.179688 54.058594 11.605469 57.632812 7.195312 57.632812 C 7.1875 57.632812 7.179688 57.632812 7.167969 57.632812 C 10.914062 79.558594 30.007812 96.25 53 96.25 C 78.679688 96.25 99.5 75.429688 99.5 49.75 C 99.5 24.070312 78.679688 3.25 53 3.25 "/>
<path style=" stroke:none;fill-rule:nonzero;fill:rgb(100%,100%,100%);fill-opacity:1;" d="M 38.011719 55.148438 L 33.226562 55.148438 L 24.554688 41.921875 C 24.046875 41.148438 23.695312 40.566406 23.496094 40.175781 L 23.441406 40.175781 C 23.519531 40.960938 23.558594 42.09375 23.558594 43.582031 L 23.558594 55.148438 L 19.078125 55.148438 L 19.078125 34.101562 L 24.1875 34.101562 L 32.539062 46.914062 L 33.59375 48.628906 L 33.652344 48.628906 C 33.574219 48.121094 33.535156 47.160156 33.535156 45.738281 L 33.535156 34.101562 L 38.011719 34.101562 Z M 55.449219 55.148438 L 42.828125 55.148438 L 42.828125 34.101562 L 54.964844 34.101562 L 54.964844 37.960938 L 47.566406 37.960938 L 47.566406 42.640625 L 54.449219 42.640625 L 54.449219 46.488281 L 47.566406 46.488281 L 47.566406 51.300781 L 55.449219 51.300781 Z M 73.605469 37.960938 L 67.601562 37.960938 L 67.601562 55.148438 L 62.847656 55.148438 L 62.847656 37.960938 L 56.871094 37.960938 L 56.871094 34.101562 L 73.605469 34.101562 Z M 73.605469 37.960938 "/>
<path style=" stroke:none;fill-rule:nonzero;fill:rgb(100%,100%,100%);fill-opacity:1;" d="M 22.585938 61.472656 C 21.425781 61.417969 20.285156 62.34375 20.195312 63.542969 C 20.132812 63.921875 20.136719 64.292969 20.140625 64.675781 C 19.84375 64.78125 19.421875 64.527344 19.203125 64.777344 C 19.269531 65.039062 19.027344 65.519531 19.472656 65.539062 C 19.703125 65.5625 20.128906 65.398438 20.160156 65.78125 C 20.101562 67.660156 20.160156 69.554688 20.140625 71.441406 C 20.238281 71.710938 19.933594 72.386719 20.3125 72.363281 C 20.589844 72.332031 21.070312 72.578125 21.1875 72.234375 L 21.1875 65.515625 L 23.558594 65.515625 C 23.5 65.246094 23.742188 64.820312 23.460938 64.660156 C 22.695312 64.722656 21.914062 64.667969 21.144531 64.6875 C 21.109375 63.910156 21.136719 62.839844 21.988281 62.503906 C 22.652344 62.242188 23.382812 62.34375 24.054688 62.515625 C 23.992188 62.210938 24.273438 61.730469 23.933594 61.5625 C 23.484375 61.5 23.039062 61.457031 22.585938 61.472656 Z M 27.585938 64.464844 C 25.980469 64.324219 24.378906 65.542969 24.113281 67.136719 C 23.742188 68.683594 23.917969 70.535156 25.078125 71.71875 C 26.515625 73.035156 29.097656 72.929688 30.253906 71.277344 C 31.136719 70.058594 31.179688 68.449219 30.84375 67.039062 C 30.515625 65.617188 29.214844 64.480469 27.730469 64.46875 C 27.777344 64.476562 27.527344 64.453125 27.585938 64.464844 Z M 27.589844 65.320312 C 28.785156 65.296875 29.785156 66.363281 29.851562 67.527344 C 30.054688 68.800781 29.988281 70.339844 28.964844 71.261719 C 27.804688 72.214844 25.714844 71.730469 25.304688 70.214844 C 24.894531 69.007812 24.921875 67.613281 25.457031 66.449219 C 25.871094 65.691406 26.738281 65.265625 27.589844 65.320312 Z M 32.949219 64.660156 C 32.457031 64.601562 32.710938 65.230469 32.652344 65.511719 C 32.679688 67.144531 32.597656 68.800781 32.6875 70.417969 C 32.796875 71.425781 33.484375 72.410156 34.542969 72.554688 C 35.710938 72.792969 36.929688 72.265625 37.789062 71.480469 C 38.128906 71.464844 37.964844 71.976562 37.992188 72.171875 C 37.984375 72.574219 38.535156 72.355469 38.773438 72.371094 C 39.222656 72.464844 38.980469 71.90625 39.039062 71.617188 L 39.039062 64.703125 C 38.695312 64.769531 38.257812 64.507812 38 64.777344 C 37.984375 66.710938 38 68.648438 37.992188 70.582031 C 37.042969 71.34375 35.695312 71.964844 34.492188 71.421875 C 33.609375 70.875 33.707031 69.6875 33.695312 68.789062 L 33.695312 64.703125 C 33.449219 64.726562 33.179688 64.664062 32.949219 64.660156 Z M 44.984375 64.46875 C 43.976562 64.519531 43.085938 65.082031 42.339844 65.722656 C 42.210938 65.378906 42.484375 64.933594 42.234375 64.667969 C 41.910156 64.746094 41.417969 64.5 41.238281 64.878906 C 41.328125 66.929688 41.25 69 41.277344 71.0625 C 41.328125 71.464844 41.171875 72.09375 41.351562 72.363281 C 41.667969 72.3125 42.128906 72.578125 42.320312 72.265625 C 42.324219 70.339844 42.320312 68.414062 42.324219 66.488281 C 43.289062 65.71875 44.6875 65.066406 45.886719 65.699219 C 46.699219 66.238281 46.585938 67.355469 46.621094 68.207031 L 46.621094 72.367188 C 46.964844 72.300781 47.402344 72.5625 47.65625 72.292969 C 47.628906 70.320312 47.753906 68.335938 47.585938 66.375 C 47.410156 65.332031 46.476562 64.433594 45.367188 64.46875 C 45.242188 64.464844 45.113281 64.464844 44.984375 64.46875 Z M 55.285156 61.515625 C 54.792969 61.457031 55.046875 62.089844 54.988281 62.367188 C 54.960938 63.21875 55.042969 64.101562 54.953125 64.9375 C 54.609375 65.113281 54.292969 64.652344 53.941406 64.640625 C 52.445312 64.105469 50.558594 64.738281 49.855469 66.214844 C 49.058594 67.734375 49.132812 69.601562 49.820312 71.144531 C 50.371094 72.207031 51.617188 72.8125 52.765625 72.570312 C 53.613281 72.445312 54.347656 71.953125 54.96875 71.390625 C 55.101562 71.710938 54.820312 72.164062 55.078125 72.410156 C 55.40625 72.324219 55.890625 72.570312 56.074219 72.191406 C 55.984375 70.140625 56.058594 68.070312 56.035156 66.007812 L 56.035156 61.558594 C 55.785156 61.582031 55.519531 61.519531 55.285156 61.515625 Z M 52.925781 65.394531 C 53.628906 65.417969 54.460938 65.503906 54.988281 65.976562 C 54.96875 67.53125 55.027344 69.128906 54.960938 70.660156 C 54 71.457031 52.539062 72 51.378906 71.308594 C 50.351562 70.542969 50.347656 69.101562 50.410156 67.941406 C 50.484375 66.78125 51.265625 65.53125 52.515625 65.421875 C 52.648438 65.402344 52.789062 65.398438 52.925781 65.394531 Z M 60.386719 64.503906 C 59.722656 64.550781 59.046875 64.664062 58.414062 64.828125 C 58.46875 65.171875 58.265625 65.582031 58.457031 65.867188 C 59.75 65.429688 61.277344 65.078125 62.550781 65.742188 C 63.074219 66.097656 63.210938 66.796875 63.144531 67.390625 C 61.515625 67.554688 59.667969 67.378906 58.332031 68.503906 C 57.140625 69.664062 57.648438 72.007812 59.292969 72.464844 C 60.574219 72.894531 61.960938 72.347656 62.960938 71.523438 C 63.300781 71.519531 63.097656 72.027344 63.136719 72.222656 C 63.113281 72.515625 63.523438 72.285156 63.695312 72.390625 C 63.929688 72.457031 64.304688 72.417969 64.1875 72.085938 C 64.144531 70.148438 64.277344 68.207031 64.109375 66.277344 C 63.867188 65.195312 62.761719 64.574219 61.71875 64.535156 C 61.273438 64.488281 60.832031 64.484375 60.386719 64.507812 Z M 63.148438 68.257812 C 63.113281 69.0625 63.222656 69.902344 63.089844 70.683594 C 62.09375 71.507812 60.605469 72.003906 59.390625 71.378906 C 58.40625 70.738281 58.652344 68.996094 59.789062 68.664062 C 60.847656 68.207031 62.027344 68.308594 63.148438 68.175781 Z M 66.707031 62.359375 C 66.214844 62.304688 66.46875 62.933594 66.410156 63.210938 C 66.363281 63.675781 66.496094 64.199219 66.355469 64.636719 C 66.113281 64.851562 65.667969 64.503906 65.492188 64.753906 C 65.476562 65.050781 65.375 65.675781 65.882812 65.550781 C 66.128906 65.40625 66.503906 65.535156 66.429688 65.871094 C 66.386719 66.976562 66.433594 68.089844 66.398438 69.199219 C 66.441406 70.175781 66.300781 71.378906 67.164062 72.066406 C 68.027344 72.761719 69.226562 72.554688 70.222656 72.347656 C 70.167969 72.058594 70.351562 71.699219 70.199219 71.457031 C 69.429688 71.699219 68.363281 71.878906 67.789062 71.160156 C 67.238281 70.324219 67.542969 69.261719 67.457031 68.335938 L 67.457031 65.515625 L 70.222656 65.515625 C 70.164062 65.246094 70.40625 64.816406 70.125 64.660156 C 69.242188 64.722656 68.34375 64.667969 67.457031 64.6875 L 67.457031 62.402344 C 67.207031 62.429688 66.941406 62.363281 66.707031 62.363281 Z M 71.578125 61.929688 C 71.167969 62 71.480469 62.589844 71.382812 62.863281 C 71.441406 63.265625 72.230469 62.941406 72.585938 63.046875 C 72.535156 62.691406 72.757812 62.253906 72.515625 61.953125 C 72.203125 62.011719 71.886719 61.902344 71.578125 61.929688 Z M 71.769531 64.660156 C 71.273438 64.601562 71.527344 65.230469 71.46875 65.511719 L 71.46875 72.367188 C 71.816406 72.300781 72.253906 72.5625 72.507812 72.292969 C 72.527344 69.765625 72.511719 67.230469 72.515625 64.703125 C 72.269531 64.726562 72 64.664062 71.769531 64.660156 Z M 77.496094 64.46875 C 75.863281 64.453125 74.425781 65.839844 74.265625 67.425781 C 73.976562 68.9375 74.203125 70.730469 75.414062 71.824219 C 76.945312 73.105469 79.613281 72.832031 80.632812 71.035156 C 81.371094 69.738281 81.414062 68.136719 80.964844 66.75 C 80.554688 65.429688 79.273438 64.453125 77.875 64.46875 C 77.75 64.460938 77.625 64.464844 77.496094 64.46875 Z M 77.804688 65.320312 C 78.996094 65.296875 79.996094 66.363281 80.066406 67.527344 C 80.269531 68.800781 80.203125 70.339844 79.179688 71.261719 C 78.015625 72.214844 75.925781 71.730469 75.515625 70.214844 C 75.109375 69.007812 75.136719 67.613281 75.671875 66.449219 C 76.082031 65.691406 76.949219 65.265625 77.804688 65.320312 Z M 86.628906 64.46875 C 85.621094 64.515625 84.730469 65.082031 83.984375 65.722656 C 83.855469 65.378906 84.132812 64.933594 83.878906 64.667969 C 83.554688 64.746094 83.0625 64.5 82.882812 64.878906 C 82.972656 66.929688 82.894531 69 82.921875 71.0625 C 82.976562 71.464844 82.816406 72.09375 82.996094 72.363281 C 83.3125 72.3125 83.773438 72.578125 83.964844 72.265625 C 83.96875 70.339844 83.964844 68.414062 83.96875 66.488281 C 84.933594 65.71875 86.332031 65.066406 87.53125 65.699219 C 88.34375 66.238281 88.230469 67.355469 88.265625 68.207031 L 88.265625 72.367188 C 88.609375 72.300781 89.046875 72.5625 89.300781 72.292969 C 89.273438 70.320312 89.398438 68.335938 89.230469 66.375 C 89.058594 65.328125 88.113281 64.429688 87.011719 64.46875 C 86.886719 64.464844 86.757812 64.464844 86.628906 64.46875 Z M 86.628906 64.46875 "/>
<path style=" stroke:none;fill-rule:nonzero;fill:rgb(81.176471%,9.411765%,99.215686%);fill-opacity:1;" d="M 12.820312 49.792969 C 12.820312 53.035156 10.191406 55.667969 6.945312 55.667969 C 3.699219 55.667969 1.070312 53.035156 1.070312 49.792969 C 1.070312 46.546875 3.699219 43.917969 6.945312 43.917969 C 10.191406 43.917969 12.820312 46.546875 12.820312 49.792969 "/>
</g>
</svg>