<svg xmlns="http://www.w3.org/2000/svg" style="display: none;">
    <symbol id="site-logo" viewBox="0 0 90 32">
        <path d="M17.914 0c8.775 0 15.889 7.164 15.889 16s-7.114 16-15.889 16c-7.857 0-14.381-5.743-15.66-13.287h0.009c1.507 0.001 2.728-1.229 2.729-2.746s-1.22-2.747-2.727-2.748c1.307-7.511 7.816-13.219 15.649-13.219zM8.661 11.151h-2.337v9.699h2.048v-5.329c0-0.685-0.018-1.208-0.054-1.569h0.027c0.090 0.18 0.251 0.449 0.484 0.805l3.97 6.094h2.189v-9.699h-2.049l0 5.5c0.002 0.579 0.020 0.978 0.053 1.195h-0.027l-0.484-0.791-3.821-5.904zM22.745 11.151h-5.554v9.699h5.776v-1.772h-3.607v-2.218h3.15v-1.772h-3.15v-2.157h3.385v-1.779zM31.274 11.151h-7.657v1.779h2.734v7.919h2.176v-7.92h2.747v-1.779z"/>
        <path fill="currentColor" d="M4.056 16c0 1.12-0.908 2.028-2.028 2.028s-2.028-0.908-2.028-2.028c0-1.12 0.908-2.028 2.028-2.028s2.028 0.908 2.028 2.028z"/>
        <path d="M36.696 20.593h0.682v-4.715h1.227v-0.624h-1.227v-1.491c0-0.959 0.295-1.421 0.92-1.421 0.261 0 0.454 0.035 0.614 0.116l0.136-0.601c-0.205-0.092-0.455-0.139-0.784-0.139-0.671 0-1.568 0.416-1.568 1.791v1.745h-1.091v0.624h1.090v4.715zM39.387 17.924c0 1.629 1.147 2.808 2.761 2.808s2.761-1.179 2.761-2.808-1.147-2.808-2.761-2.808c-1.613 0-2.761 1.179-2.761 2.808zM40.069 17.924c0-1.202 0.795-2.184 2.079-2.184s2.079 0.982 2.079 2.184-0.795 2.184-2.079 2.184c-1.284 0-2.079-0.982-2.079-2.184v0zM50.87 15.255h-0.681v2.67c0 1.467-0.806 2.184-1.818 2.184-1.079 0-1.317-0.844-1.317-1.71v-3.143h-0.682v3.178c0 1.167 0.363 2.3 1.999 2.3 0.852 0 1.523-0.485 1.795-1.075h0.034c0.023 0.104 0.034 0.543 0.045 0.936h0.682c0-0.277-0.057-1.109-0.057-1.502l-0-3.837zM52.752 20.593h0.682v-2.67c0-1.467 0.806-2.184 1.818-2.184 1.079 0 1.317 0.844 1.317 1.71v3.143h0.682v-3.178c0-1.167-0.364-2.3-2-2.3-0.852 0-1.522 0.485-1.795 1.075h-0.034c-0.023-0.104-0.034-0.543-0.046-0.936h-0.682c0 0.277 0.057 1.11 0.057 1.502v3.836zM63.665 20.593h0.682v-8.736h-0.681v4.333h-0.023c-0.421-0.739-1.318-1.075-2.102-1.075-1.613 0-2.761 1.179-2.761 2.809s1.147 2.808 2.761 2.808c0.784 0 1.681-0.335 2.102-1.075h0.023v0.936zM63.733 17.924c0 1.202-0.954 2.184-2.192 2.184-1.284 0-2.079-0.982-2.079-2.184s0.795-2.184 2.079-2.184c1.239 0 2.193 0.982 2.193 2.184v-0zM70.099 17.046c0-1.352-0.818-1.93-2.091-1.93-0.682 0-1.5 0.266-1.999 0.751l0.397 0.474c0.466-0.405 0.989-0.601 1.602-0.601 0.841 0 1.477 0.37 1.477 1.294v0.324h-0.795c-1.034 0-2.908 0.162-2.908 1.791 0 1.133 0.954 1.583 1.852 1.583 0.886 0 1.454-0.324 1.841-1.006h0.023c0 0.301 0.023 0.601 0.068 0.867h0.636c-0.079-0.612-0.102-1.202-0.102-2.242l0-1.306zM69.485 17.913v0.358c0 0.89-0.375 1.838-1.829 1.838-0.568 0-1.193-0.335-1.193-0.994 0-0.913 1.136-1.202 2.272-1.202h0.75zM74.49 15.255h-1.5v-1.537h-0.682v1.537h-1.136v0.624h1.136v3.478c0 0.763 0.375 1.375 1.352 1.375 0.261 0 0.636-0.093 0.886-0.185l-0.057-0.624c-0.238 0.104-0.511 0.185-0.772 0.185-0.455 0-0.727-0.278-0.727-0.751v-3.478h1.5v-0.624zM75.83 20.593h0.682v-5.339h-0.682v5.339zM75.66 13.14c0 0.289 0.227 0.52 0.511 0.52s0.511-0.231 0.511-0.52c0-0.289-0.227-0.52-0.511-0.52s-0.511 0.231-0.511 0.52zM78.151 17.924c0 1.629 1.147 2.808 2.761 2.808s2.761-1.179 2.761-2.808-1.147-2.808-2.761-2.808c-1.613 0-2.761 1.179-2.761 2.808zM78.832 17.924c0-1.202 0.796-2.184 2.079-2.184s2.079 0.982 2.079 2.184c0 1.202-0.795 2.184-2.079 2.184s-2.079-0.982-2.079-2.184h-0zM85.191 20.593h0.681v-2.67c0-1.467 0.807-2.184 1.818-2.184 1.079 0 1.318 0.844 1.318 1.71v3.143h0.682v-3.178c0-1.167-0.364-2.3-1.999-2.3-0.852 0-1.522 0.485-1.795 1.075h-0.034c-0.023-0.104-0.034-0.543-0.045-0.936h-0.682c0 0.277 0.057 1.11 0.057 1.502v3.836z"/>
    </symbol>
    <symbol id="search" viewBox="0 0 32 32">
        <path d="M23.374 21.066l8.156 8.156c0.634 0.634 0.636 1.661-0.005 2.303-0.637 0.637-1.68 0.628-2.303 0.005l-8.156-8.156c-5.123 3.987-12.533 3.626-17.241-1.083-5.099-5.099-5.099-13.367 0-18.467s13.367-5.099 18.467 0c4.709 4.709 5.070 12.118 1.083 17.241l0-0zM19.983 19.983c3.825-3.825 3.825-10.025 0-13.85s-10.025-3.825-13.85 0c-3.825 3.825-3.825 10.025 0 13.85s10.025 3.825 13.85 0z"/>
    </symbol>
    <symbol id="account" viewBox="0 0 21 20">
        <title>Account</title>
        <path d="M16.6893807,15.6801926 C15.6832773,14.0790819 14.144126,12.9116873 12.3787157,12.3502919 C13.3009337,11.6346053 13.9047925,10.5291123 13.9047925,9.27534465 C13.9047925,7.12261549 12.1540765,5.37080038 10.0000168,5.37080038 C7.84728761,5.37080038 6.09547251,7.12261549 6.09547251,9.27534465 C6.09547251,10.5291123 6.69933123,11.6359938 7.62131787,12.3502919 C5.85613896,12.9116352 4.31675624,14.0790819 3.31088427,15.6801926 C2.00742183,14.1471158 1.21508143,12.1656863 1.21508143,10.0007503 C1.21508143,5.15564895 5.15624599,1.21419513 9.99990107,1.21419513 C14.8435562,1.21419513 18.7847207,5.15535969 18.7847207,10.0007503 C18.7847207,12.1656863 17.9926696,14.1471158 16.6891493,15.6801926 M7.31019004,9.2754025 C7.31019004,7.79202048 8.51651905,6.58574933 9.99984322,6.58574933 C11.4831674,6.58574933 12.6897278,7.79207833 12.6897278,9.2754025 C12.6897278,10.7587267 11.4832252,11.9652871 9.99984322,11.9652871 C8.5164612,11.9652871 7.31019004,10.7587845 7.31019004,9.2754025 M9.99984322,18.7845304 C7.7596419,18.7845304 5.71995545,17.9352619 4.16720893,16.5504596 C4.18189812,16.5310248 4.20607793,16.5213075 4.21941107,16.4980313 C5.41735154,14.4522125 7.63088311,13.1803373 9.99986289,13.1803373 C12.3677435,13.1803373 14.5826057,14.4521547 15.7791577,16.4968743 C15.7924908,16.5199248 15.8130555,16.5332579 15.8288739,16.5540482 C14.2763588,17.9365943 12.2377715,18.7845304 9.99971074,18.7845304 M9.99971074,0 C4.48659281,0 0,4.48670851 0,10.0014463 C0,15.5145642 4.48670851,20 9.99971074,20 C15.5130601,20 19.9994215,15.5146799 19.9994215,10.0014463 C19.9994215,4.48699777 15.5129444,0 9.99971074,0" id="Shape"/>
    </symbol>
    <symbol id="youtube" viewBox="0 0 48 32">
        <title>YouTube</title>
        <path d="M11.335 0.262c7.276-0.328 14.854-0.334 22.37-0.088 2.46 0.080 4.992 0.176 7.238 0.356 5.066 0.404 6.348 3.476 6.814 8.308 0.080 0.816 0.114 1.672 0.142 2.4v0.046c0.108 0.132 0.016 0.456 0.048 0.666v0.264c0.108 0.268 0.016 0.726 0.046 1.070v5.864c-0.030 0.208 0.062 0.532-0.046 0.666v0.266c-0.032 0.208 0.060 0.534-0.048 0.668v0.22c-0.028 0.164 0.062 0.446-0.046 0.534-0.032 0.196 0.060 0.504-0.048 0.62-0.2 2.866-0.468 5.366-1.786 7.068-1.496 1.934-4.106 2.448-7.66 2.444-0.064 0.102-0.326 0.016-0.472 0.042h-0.47c-0.080 0.104-0.356 0.020-0.516 0.046h-0.564c-0.094 0.102-0.39 0.016-0.564 0.046h-0.656c-0.051 0.040-0.134 0.051-0.228 0.051l-0.296-0.012-0.135 0.006h-0.752c-0.069 0.041-0.17 0.051-0.283 0.051l-0.352-0.013-0.163 0.006h-0.846c-0.252 0.102-0.704 0.012-1.034 0.044h-1.126c-0.348 0.104-0.894 0.014-1.318 0.046h-1.692c-1.49 0.074-3.306 0.074-4.794 0h-1.598c-0.47-0.032-1.066 0.058-1.456-0.046h-1.222c-0.362-0.032-0.846 0.058-1.13-0.044h-1.032c-0.060-0.006-0.124-0.007-0.191-0.006l-0.409 0.013c-0.132 0-0.252-0.010-0.339-0.051h-0.848c-0.25-0.030-0.626 0.056-0.796-0.044h-0.704c-0.208-0.030-0.536 0.058-0.662-0.046h-0.61c-0.172-0.026-0.468 0.058-0.562-0.046h-0.472c-0.158-0.026-0.436 0.060-0.516-0.042-3.45-0.112-6.172-0.54-7.614-2.532-1.244-1.718-1.568-4.128-1.74-6.98-0.108-0.116-0.016-0.424-0.046-0.62-0.11-0.088-0.018-0.37-0.046-0.534v-0.22c-0.11-0.134-0.018-0.46-0.048-0.668v-0.266c-0.108-0.134-0.018-0.458-0.048-0.666v-5.864c0.030-0.344-0.060-0.802 0.048-1.070v-0.264c0.030-0.21-0.062-0.534 0.048-0.666v-0.046c0.144-4.702 0.74-8.762 4.416-10.22 1.742-0.694 4.476-0.65 6.816-0.756zM19.043 9.196v12.664c0.474-0.16 0.84-0.422 1.316-0.578 0.088-0.126 0.256-0.172 0.422-0.224 1.278-0.658 2.582-1.292 3.9-1.91 0.162-0.114 0.352-0.202 0.564-0.268 0.224-0.13 0.428-0.278 0.706-0.354 0.194-0.13 0.412-0.234 0.658-0.314 0.002-0.040 0.058-0.032 0.094-0.044 1.296-0.686 2.626-1.338 3.996-1.954 0.088-0.124 0.256-0.172 0.422-0.222 0.234-0.162 0.538-0.262 0.798-0.4-0.078-0.25-0.454-0.222-0.612-0.398-0.164-0.052-0.334-0.098-0.42-0.224-0.248-0.080-0.468-0.184-0.66-0.312-0.164-0.048-0.336-0.096-0.424-0.22-0.244-0.080-0.464-0.184-0.656-0.312-0.166-0.052-0.336-0.096-0.424-0.222-0.088-0.006-0.156-0.030-0.186-0.090-0.322-0.126-0.654-0.242-0.894-0.446-0.088-0.002-0.158-0.026-0.188-0.084-0.32-0.13-0.652-0.246-0.892-0.446-0.088-0.006-0.158-0.030-0.19-0.090-0.318-0.128-0.65-0.242-0.892-0.444-0.174-0.026-0.276-0.124-0.424-0.18-0.208-0.126-0.5-0.176-0.658-0.352-0.172-0.030-0.274-0.126-0.422-0.178-0.21-0.13-0.5-0.18-0.658-0.356-0.174-0.030-0.276-0.124-0.422-0.18-0.21-0.124-0.502-0.178-0.658-0.354-0.076 0.012-0.080-0.040-0.142-0.044-0.304-0.172-0.688-0.268-0.94-0.488-0.076 0.012-0.080-0.044-0.142-0.046-0.304-0.174-0.688-0.266-0.938-0.49-0.078 0.014-0.082-0.040-0.142-0.042-0.304-0.128-0.564-0.298-0.892-0.398z"/>
    </symbol>
    <symbol id="twitter" viewBox="0 0 40 32">
        <title>Twitter</title>
        <path d="M38.896 0.59c-1.586 0.926-3.344 1.6-5.212 1.962-1.496-1.572-3.628-2.552-5.99-2.552-4.53 0-8.206 3.618-8.206 8.078 0 0.634 0.074 1.25 0.214 1.84-6.822-0.334-12.87-3.55-16.918-8.44-0.706 1.194-1.108 2.58-1.108 4.064 0 2.802 1.446 5.274 3.65 6.722-1.346-0.044-2.612-0.406-3.718-1.010-0.002 0.034-0.002 0.066-0.002 0.104 0 3.912 2.832 7.178 6.586 7.92-0.692 0.186-1.416 0.282-2.164 0.282-0.528 0-1.044-0.050-1.546-0.146 1.046 3.212 4.078 5.546 7.666 5.612-2.808 2.166-6.346 3.456-10.19 3.456-0.662 0-1.316-0.038-1.958-0.112 3.634 2.292 7.946 3.63 12.58 3.63 15.098 0 23.348-12.308 23.348-22.986 0-0.348-0.006-0.698-0.022-1.044 1.604-1.14 2.994-2.562 4.094-4.18-1.47 0.642-3.052 1.076-4.712 1.27 1.694-1 2.994-2.584 3.608-4.47z"/>
    </symbol>
    <symbol id="github" viewBox="0 0 24 24">
        <title>GitHub</title>
        <path d="M7.77656293,18.2531247 C7.77656293,18.1453114 7.65468764,18.0703125 7.51406264,18.0843744 C7.37812543,18.0843744 7.27031279,18.1593747 7.27031279,18.2531247 C7.27031279,18.3609381 7.37812543,18.4359369 7.53281307,18.421875 C7.66875029,18.421875 7.77656293,18.3468747 7.77656293,18.2531247 Z M6.31875014,18.0421872 C6.28593779,18.1359372 6.37968779,18.2437491 6.52031279,18.2718744 C6.64218807,18.3187494 6.78281307,18.2718744 6.81093764,18.1781244 C6.83906221,18.0843744 6.75,17.9765625 6.609375,17.9343739 C6.48749971,17.9015608 6.3515625,17.9484358 6.31875014,18.0421858 L6.31875014,18.0421872 Z M8.390625,17.9624991 C8.25468779,17.9953122 8.16093779,18.0843744 8.17499971,18.1921864 C8.18906236,18.2859364 8.31093693,18.3468733 8.45156193,18.3140616 C8.58749914,18.2812486 8.68124914,18.1921864 8.66718721,18.0984364 C8.65312457,18.0093741 8.52656221,17.9484358 8.390625,17.9624991 Z M11.4750009,0 C4.97343779,0 0,4.93593693 0,11.4375 C0,16.6359372 3.27187514,21.0843744 7.9453125,22.6500006 C8.54531264,22.7578125 8.75625014,22.3875003 8.75625014,22.0828128 C8.75625014,21.7921872 8.7421875,20.1890631 8.7421875,19.2046881 C8.7421875,19.2046881 5.4609375,19.9078131 4.77187514,17.8078136 C4.77187514,17.8078136 4.23749971,16.4437509 3.46874928,16.0921884 C3.46874928,16.0921884 2.39531136,15.3562503 3.54374886,15.3703136 C3.54374886,15.3703136 4.71093678,15.4640636 5.35312414,16.5796881 C6.37968636,18.3890634 8.09999871,17.8687506 8.77031207,17.5593753 C8.87812471,16.8093753 9.18281221,16.2890625 9.52031207,15.9796872 C6.89999986,15.6890616 4.25624943,15.3093753 4.25624943,10.7999997 C4.25624943,9.51093721 4.61249971,8.86406207 5.36249971,8.0390625 C5.24062443,7.734375 4.84218693,6.47812557 5.48437428,4.85625029 C6.4640615,4.55156279 8.71874928,6.12187529 8.71874928,6.12187529 C9.65624928,5.859375 10.6640618,5.72343779 11.6624994,5.72343779 C12.6609371,5.72343779 13.6687496,5.859375 14.6062496,6.12187529 C14.6062496,6.12187529 16.8609374,4.546875 17.8406246,4.85625029 C18.4828126,6.48281193 18.0843751,7.734375 17.9624999,8.0390625 C18.7124999,8.86874986 19.1718743,9.515625 19.1718743,10.7999997 C19.1718743,15.3234372 16.4109371,15.6843739 13.7906249,15.9796872 C14.2218754,16.3499994 14.5874999,17.0531244 14.5874999,18.1546869 C14.5874999,19.734375 14.5734379,21.6890616 14.5734379,22.0734372 C14.5734379,22.3781247 14.7890632,22.7484369 15.3843749,22.640625 C20.0718749,21.0843744 23.2499993,16.6359372 23.2499993,11.4375 C23.2499993,4.93593693 17.9765618,0 11.4749994,0 L11.4750009,0 Z M4.55624914,16.1671872 C4.4953115,16.2140622 4.50937414,16.3218741 4.5890615,16.4109378 C4.66406178,16.4859381 4.77187443,16.5187497 4.83281207,16.4578128 C4.89374971,16.4109378 4.87968707,16.3031259 4.79999971,16.2140622 C4.72499943,16.1390619 4.61718678,16.1062503 4.55624914,16.1671872 Z M4.049999,15.7874994 C4.01718664,15.8484364 4.06406164,15.9234366 4.15781164,15.9703116 C4.23281193,16.0171866 4.32656193,16.0031247 4.359375,15.9374986 C4.39218736,15.8765616 4.34531236,15.8015614 4.25156236,15.7546864 C4.15781236,15.7265611 4.08281207,15.7406244 4.049999,15.7874994 Z M5.56874943,17.4562497 C5.49374914,17.5171866 5.52187443,17.6578116 5.62968707,17.7468753 C5.73749971,17.8546872 5.87343693,17.8687506 5.93437457,17.7937503 C5.99531221,17.7328134 5.96718693,17.5921884 5.87343693,17.5031247 C5.77031207,17.3953128 5.62968707,17.3812494 5.56874943,17.4562497 Z M5.034374,16.7671866 C4.95937371,16.8140616 4.95937371,16.9359369 5.034374,17.0437489 C5.10937428,17.1515608 5.23593736,17.1984358 5.296875,17.1515608 C5.37187529,17.0906239 5.37187529,16.9687486 5.296875,16.8609352 C5.23124957,16.7531233 5.10937428,16.7062483 5.034374,16.7671852 L5.034374,16.7671866 Z"/>
    </symbol>
    <symbol id="linkedin" viewBox="0 0 32 32">
        <title>LinkedIn</title>
        <path d="M31.749 31.096h-6.805v-11.227c0-2.819-0.984-4.743-3.447-4.743-1.88 0-3 1.297-3.492 2.551-0.18 0.449-0.222 1.074-0.222 1.701v11.718h-6.808c0 0 0.090-19.015 0-20.981h6.808v2.969c0.903-1.429 2.518-3.464 6.132-3.464 2.238 0 4.196 0.749 5.595 2.305s2.239 3.918 2.239 7.141v12.030zM3.806 7.249h-0.046c-2.284 0-3.76-1.611-3.76-3.626 0-2.055 1.522-3.623 3.85-3.623s3.761 1.568 3.805 3.623c0 2.015-1.478 3.626-3.85 3.626v0zM0.402 31.096h6.804v-20.981h-6.804v20.981z"/>
    </symbol>
    <symbol id="facebook" viewBox="0 0 16 28">
        <title>Facebook</title>
        <path d="M14.984 0.187v4.125h-2.453c-1.922 0-2.281 0.922-2.281 2.25v2.953h4.578l-0.609 4.625h-3.969v11.859h-4.781v-11.859h-3.984v-4.625h3.984v-3.406c0-3.953 2.422-6.109 5.953-6.109 1.687 0 3.141 0.125 3.563 0.187z"/>
    </symbol>
    <symbol id="meetup" viewBox="0 0 30 28">
        <path d="M20.844 19.281c-0.172-1.125-2.234-0.25-2.359-1.484-0.172-1.75 2.391-5.531 2.188-7-0.187-1.313-1.062-1.594-1.828-1.609-0.734-0.016-0.922 0.109-1.172 0.25-0.156 0.094-0.359 0.266-0.641-0.016-0.344-0.328-0.609-0.641-1.062-0.703-0.672-0.109-0.969 0.109-1.453 0.531-0.187 0.156-0.656 0.703-1.094 0.5-0.187-0.094-0.844-0.422-1.313-0.625-0.891-0.391-2.188 0.25-2.656 1.094-0.703 1.25-2.078 6.188-2.281 6.844-0.469 1.453 0.594 2.656 2.016 2.578 0.609-0.031 1-0.25 1.391-0.953 0.219-0.406 2.281-5.891 2.438-6.156 0.109-0.187 0.484-0.438 0.797-0.281 0.313 0.172 0.375 0.516 0.328 0.828-0.063 0.531-1.531 3.875-1.578 4.25-0.187 1.25 1.469 1.453 2.109 0.219 0.203-0.391 2.5-5.063 2.703-5.375 0.234-0.344 0.406-0.453 0.641-0.438 0.172 0 0.453 0.047 0.391 0.594-0.078 0.516-1.922 3.953-2.125 4.797-0.25 1.125 0.359 2.266 1.359 2.766 0.625 0.313 3.422 0.859 3.203-0.609zM5.984 22.656c0.063 0.313-0.125 0.609-0.438 0.672-0.297 0.063-0.594-0.125-0.656-0.438-0.063-0.297 0.125-0.609 0.422-0.672s0.609 0.125 0.672 0.438zM14.891 26.766c0.25 0.359 0.156 0.844-0.187 1.094-0.359 0.25-0.844 0.156-1.094-0.203-0.234-0.359-0.141-0.844 0.203-1.094 0.359-0.25 0.844-0.156 1.078 0.203zM2.766 14.078c-0.375 0.562-1.125 0.703-1.672 0.313-0.547-0.375-0.688-1.141-0.313-1.687 0.375-0.562 1.125-0.703 1.672-0.328 0.547 0.391 0.688 1.141 0.313 1.703zM22.922 24.656c0.391 0.578 0.25 1.375-0.328 1.781-0.578 0.391-1.359 0.25-1.75-0.328s-0.25-1.375 0.313-1.781c0.578-0.406 1.359-0.25 1.766 0.328zM24.672 15.219c1.437 2.359 0.828 5.469-1.437 7.063-0.953 0.672-2.031 0.969-3.109 0.938-0.656 2.578-3.797 3.531-5.75 1.781-0.063 0.047-0.141 0.094-0.203 0.156-2.141 1.484-5.047 0.953-6.531-1.219-0.531-0.781-0.797-1.672-0.828-2.562-3.578-0.594-4.922-5.141-2.25-7.641-1.547-2.562 0.031-5.875 2.922-6.281 1.375-3.625 5.891-5.344 8.953-2.969 3.687-1.219 7.453 1.609 7.156 5.531 2.25 0.688 2.891 3.656 1.078 5.203zM7.109 4.906c0.281 0.422 0.187 1-0.234 1.297-0.406 0.281-0.984 0.187-1.266-0.234s-0.187-1 0.234-1.297c0.406-0.281 0.984-0.187 1.266 0.234zM9.594 0.516c0.078 0.344-0.141 0.688-0.484 0.766s-0.688-0.141-0.766-0.5c-0.063-0.344 0.156-0.688 0.5-0.766s0.688 0.141 0.75 0.5zM28.125 15.328c0.094 0.422-0.172 0.828-0.578 0.906-0.406 0.094-0.812-0.172-0.891-0.578-0.094-0.422 0.172-0.828 0.578-0.922 0.406-0.078 0.812 0.187 0.891 0.594zM17.75 1.375c0.328 0.562 0.156 1.312-0.422 1.656-0.562 0.344-1.297 0.156-1.625-0.406-0.344-0.578-0.156-1.328 0.406-1.672s1.297-0.156 1.641 0.422zM29.406 11.625c0.078 0.313-0.125 0.609-0.422 0.688-0.313 0.063-0.609-0.141-0.672-0.438-0.063-0.313 0.125-0.625 0.438-0.688 0.297-0.063 0.594 0.125 0.656 0.438zM26.422 7.859c0.313 0.469 0.203 1.109-0.25 1.437-0.469 0.313-1.109 0.203-1.422-0.266s-0.203-1.109 0.266-1.437c0.453-0.328 1.094-0.203 1.406 0.266z"/>
    </symbol>
    <symbol id="blog" viewBox="0 0 32 32">
        <title>Globe</title>
        <path d="M16 0c-8.823 0-16 7.177-16 16s7.178 16 16 16c8.823 0 16-7.177 16-16s-7.177-16-16-16v0zM15.375 23.216c-1.837 0.040-3.628 0.252-5.295 0.621-0.725-2.141-1.139-4.614-1.196-7.211h6.491l-0 6.591zM15.375 24.466v5.7c-1.592-0.288-3.097-1.67-4.295-3.964-0.197-0.378-0.382-0.774-0.554-1.184 1.527-0.325 3.165-0.514 4.849-0.551v0zM16.625 24.466c1.683 0.038 3.322 0.227 4.849 0.551-0.172 0.411-0.357 0.807-0.554 1.184-1.197 2.294-2.704 3.676-4.295 3.964v-5.7h-0zM16.625 23.216v-6.591h6.491c-0.057 2.597-0.471 5.070-1.196 7.211-1.667-0.368-3.458-0.581-5.295-0.62l-0-0zM16.625 15.376v-6.048c1.904-0.040 3.75-0.265 5.459-0.655 0.623 2.020 0.979 4.309 1.032 6.703h-6.491zM16.625 8.077v-6.242c1.592 0.288 3.097 1.67 4.295 3.964 0.276 0.53 0.528 1.093 0.755 1.687-1.58 0.35-3.286 0.553-5.050 0.592v-0zM15.375 8.077c-1.764-0.039-3.471-0.242-5.050-0.592 0.227-0.593 0.479-1.157 0.755-1.687 1.197-2.294 2.703-3.676 4.295-3.964v6.243zM15.375 9.327v6.048l-6.491 0c0.053-2.394 0.408-4.683 1.032-6.703 1.709 0.39 3.555 0.615 5.459 0.655v-0zM7.634 15.376h-6.37c0.138-3.301 1.367-6.326 3.334-8.722 1.191 0.698 2.581 1.273 4.107 1.709-0.649 2.125-1.017 4.518-1.070 7.013l-0-0zM7.634 16.625c0.057 2.692 0.482 5.267 1.229 7.514-1.458 0.404-2.796 0.934-3.955 1.573-2.148-2.45-3.499-5.616-3.644-9.087l6.37 0zM9.296 25.314c0.207 0.511 0.432 1 0.675 1.466 0.848 1.625 1.858 2.857 2.968 3.651-2.733-0.579-5.188-1.916-7.135-3.78 1.035-0.539 2.213-0.988 3.492-1.336h-0zM22.028 26.78c0.243-0.466 0.468-0.956 0.675-1.466 1.279 0.348 2.457 0.797 3.491 1.336-1.947 1.865-4.403 3.202-7.135 3.78 1.111-0.793 2.121-2.026 2.968-3.65l-0 0zM23.136 24.139c0.748-2.247 1.172-4.822 1.229-7.514h6.37c-0.145 3.472-1.496 6.637-3.644 9.087-1.159-0.64-2.498-1.169-3.956-1.573l0-0zM24.366 15.375c-0.053-2.494-0.422-4.887-1.070-7.013 1.527-0.436 2.917-1.011 4.107-1.709 1.968 2.396 3.195 5.42 3.334 8.722l-6.371 0zM26.549 5.702c-1.068 0.598-2.302 1.095-3.654 1.477-0.258-0.69-0.547-1.345-0.867-1.958-0.848-1.625-1.858-2.857-2.968-3.651 2.901 0.614 5.489 2.083 7.489 4.132h-0zM12.94 1.57c-1.111 0.793-2.12 2.026-2.968 3.651-0.32 0.613-0.609 1.269-0.867 1.958-1.352-0.382-2.586-0.879-3.654-1.477 2-2.048 4.588-3.517 7.489-4.132h-0z"/>
    </symbol>
    <symbol id="right-arrow" viewBox="0 0 7 5">
        <title>Right Arrow</title>
        <path d="M7,2.058C6.997,1.984,6.967,1.899,6.916,1.846L5.27,0.096c-0.112-0.1-0.326-0.142-0.451-0.026             C4.695,0.184,4.7,0.406,4.822,0.52L5.98,1.749H0.309C0.138,1.749,0,1.887,0,2.058s0.138,0.309,0.309,0.309H5.98L4.822,3.596             c-0.105,0.106-0.125,0.335-0.004,0.45C4.941,4.162,5.162,4.125,5.27,4.02l1.646-1.75C6.973,2.21,7,2.14,7,2.058L7,2.058z"/>
    </symbol>
    <symbol id="globe" viewBox="0 0 32 32">
        <title>Globe</title>
        <path d="M16 0c-8.823 0-16 7.177-16 16s7.178 16 16 16c8.823 0 16-7.177 16-16s-7.177-16-16-16v0zM15.375 23.216c-1.837 0.040-3.628 0.252-5.295 0.621-0.725-2.141-1.139-4.614-1.196-7.211h6.491l-0 6.591zM15.375 24.466v5.7c-1.592-0.288-3.097-1.67-4.295-3.964-0.197-0.378-0.382-0.774-0.554-1.184 1.527-0.325 3.165-0.514 4.849-0.551v0zM16.625 24.466c1.683 0.038 3.322 0.227 4.849 0.551-0.172 0.411-0.357 0.807-0.554 1.184-1.197 2.294-2.704 3.676-4.295 3.964v-5.7h-0zM16.625 23.216v-6.591h6.491c-0.057 2.597-0.471 5.070-1.196 7.211-1.667-0.368-3.458-0.581-5.295-0.62l-0-0zM16.625 15.376v-6.048c1.904-0.040 3.75-0.265 5.459-0.655 0.623 2.020 0.979 4.309 1.032 6.703h-6.491zM16.625 8.077v-6.242c1.592 0.288 3.097 1.67 4.295 3.964 0.276 0.53 0.528 1.093 0.755 1.687-1.58 0.35-3.286 0.553-5.050 0.592v-0zM15.375 8.077c-1.764-0.039-3.471-0.242-5.050-0.592 0.227-0.593 0.479-1.157 0.755-1.687 1.197-2.294 2.703-3.676 4.295-3.964v6.243zM15.375 9.327v6.048l-6.491 0c0.053-2.394 0.408-4.683 1.032-6.703 1.709 0.39 3.555 0.615 5.459 0.655v-0zM7.634 15.376h-6.37c0.138-3.301 1.367-6.326 3.334-8.722 1.191 0.698 2.581 1.273 4.107 1.709-0.649 2.125-1.017 4.518-1.070 7.013l-0-0zM7.634 16.625c0.057 2.692 0.482 5.267 1.229 7.514-1.458 0.404-2.796 0.934-3.955 1.573-2.148-2.45-3.499-5.616-3.644-9.087l6.37 0zM9.296 25.314c0.207 0.511 0.432 1 0.675 1.466 0.848 1.625 1.858 2.857 2.968 3.651-2.733-0.579-5.188-1.916-7.135-3.78 1.035-0.539 2.213-0.988 3.492-1.336h-0zM22.028 26.78c0.243-0.466 0.468-0.956 0.675-1.466 1.279 0.348 2.457 0.797 3.491 1.336-1.947 1.865-4.403 3.202-7.135 3.78 1.111-0.793 2.121-2.026 2.968-3.65l-0 0zM23.136 24.139c0.748-2.247 1.172-4.822 1.229-7.514h6.37c-0.145 3.472-1.496 6.637-3.644 9.087-1.159-0.64-2.498-1.169-3.956-1.573l0-0zM24.366 15.375c-0.053-2.494-0.422-4.887-1.070-7.013 1.527-0.436 2.917-1.011 4.107-1.709 1.968 2.396 3.195 5.42 3.334 8.722l-6.371 0zM26.549 5.702c-1.068 0.598-2.302 1.095-3.654 1.477-0.258-0.69-0.547-1.345-0.867-1.958-0.848-1.625-1.858-2.857-2.968-3.651 2.901 0.614 5.489 2.083 7.489 4.132h-0zM12.94 1.57c-1.111 0.793-2.12 2.026-2.968 3.651-0.32 0.613-0.609 1.269-0.867 1.958-1.352-0.382-2.586-0.879-3.654-1.477 2-2.048 4.588-3.517 7.489-4.132h-0z"/>
    </symbol>
    <symbol id="pin" viewBox="0 0 26 32">
        <title>Pin</title>
        <path d="M12.801 0c-6.941 0-12.801 5.31-12.801 11.598 0 4.2 3.886 10.48 12.24 19.78l0.561 0.622 0.561-0.622c8.235-9.162 12.24-15.652 12.24-19.78 0-6.398-5.742-11.598-12.801-11.598l-0-0zM12.801 29.744c-7.601-8.544-11.296-14.484-11.296-18.146 0-5.471 5.188-10.105 11.296-10.105 6.23 0 11.296 4.528 11.296 10.094 0 3.619-3.802 9.723-11.296 18.157v0z"/>
        <path d="M12.801 6.024c-1.398 0-2.739 0.556-3.728 1.544s-1.544 2.33-1.544 3.728c0 1.398 0.556 2.739 1.544 3.728s2.33 1.544 3.728 1.544 2.739-0.555 3.728-1.544c0.989-0.989 1.544-2.33 1.544-3.728-0.002-1.398-0.558-2.738-1.546-3.726s-2.328-1.544-3.726-1.546v0zM12.801 15.060c-1 0.001-1.959-0.395-2.666-1.102s-1.105-1.665-1.105-2.665c-0-1 0.397-1.959 1.104-2.666s1.666-1.104 2.666-1.104c1 0 1.959 0.398 2.665 1.105s1.103 1.667 1.102 2.666c-0.001 0.998-0.398 1.955-1.104 2.661s-1.663 1.103-2.661 1.104h-0z"/>
    </symbol>
    <symbol id="mail" viewBox="0 0 32 32">
        <title>Mail</title>
        <path d="M20.638 20h-8.332l2.244 1.98 2.267 0.011-1.697 0.009h3.378l0.020-0.018-0.099 0.001 2.218-1.983zM21.757 19l3.243-2.9v-8.091c0-0.557-0.455-1.009-1-1.009h-15c-0.552 0-1 0.444-1 1.002v8.198l3.173 2.8h10.583zM13.091 6l3.409-3 3.409 3h4.093c1.107 0 1.997 0.895 1.997 2v3.36l3 2.64v14.006c0 1.1-0.897 1.994-2.004 1.994h-20.993c-1.114 0-2.004-0.893-2.004-1.994v-14.006l3-2.64v-3.36c0-1.112 0.894-2 1.997-2h4.093zM18.428 6l-1.928-1.7-1.928 1.7h3.856zM26 12.677v2.656l1.5-1.333-1.5-1.323zM7 15.333v-2.656l-1.5 1.323 1.5 1.333zM13.5 23l-7 6h20l-7-6h-6zM27.685 28.725v0 0c0.194-0.183 0.315-0.442 0.315-0.725v-13l-8 7.017 7.685 6.708zM5.315 28.725l7.685-6.708-8-7.017v13c0 0.283 0.121 0.542 0.315 0.725v0 0zM10 10v1h13v-1h-13zM10 13v1h13v-1h-13zM10 16v1h13v-1h-13z"/>
    </symbol>
</svg>