<svg xmlns="http://www.w3.org/2000/svg" xmlns:xlink="http://www.w3.org/1999/xlink" width="50px" height="50px" viewBox="0 0 50 50" version="1.1">
  <g id="surface1">
    <path style=" stroke:none;fill-rule:nonzero;fill:rgb(40.784314%,12.941176%,47.843137%);fill-opacity:1;" d="M 26.5 1.625 C 15.039062 1.625 5.515625 9.917969 3.601562 20.832031 C 5.804688 20.835938 7.589844 22.621094 7.589844 24.824219 C 7.589844 27.03125 5.800781 28.816406 3.597656 28.816406 C 3.59375 28.816406 3.589844 28.816406 3.585938 28.816406 C 5.457031 39.78125 15.003906 48.125 26.5 48.125 C 39.339844 48.125 49.75 37.714844 49.75 24.875 C 49.75 12.035156 39.339844 1.625 26.5 1.625 "/>
    <path style=" stroke:none;fill-rule:nonzero;fill:rgb(100%,100%,100%);fill-opacity:1;" d="M 19.007812 27.574219 L 16.613281 27.574219 L 12.277344 20.960938 C 12.023438 20.574219 11.847656 20.285156 11.75 20.089844 L 11.71875 20.089844 C 11.757812 20.480469 11.777344 21.046875 11.777344 21.789062 L 11.777344 27.574219 L 9.539062 27.574219 L 9.539062 17.050781 L 12.09375 17.050781 L 16.269531 23.457031 L 16.796875 24.316406 L 16.828125 24.316406 C 16.789062 24.0625 16.769531 23.578125 16.769531 22.871094 L 16.769531 17.050781 L 19.007812 17.050781 Z M 27.722656 27.574219 L 21.414062 27.574219 L 21.414062 17.050781 L 27.480469 17.050781 L 27.480469 18.980469 L 23.785156 18.980469 L 23.785156 21.320312 L 27.226562 21.320312 L 27.226562 23.242188 L 23.785156 23.242188 L 23.785156 25.652344 L 27.722656 25.652344 Z M 36.800781 18.980469 L 33.800781 18.980469 L 33.800781 27.574219 L 31.421875 27.574219 L 31.421875 18.980469 L 28.4375 18.980469 L 28.4375 17.050781 L 36.800781 17.050781 Z M 36.800781 18.980469 "/>
    <path style=" stroke:none;fill-rule:nonzero;fill:rgb(100%,100%,100%);fill-opacity:1;" d="M 11.292969 30.738281 C 10.710938 30.707031 10.140625 31.171875 10.097656 31.769531 C 10.066406 31.960938 10.070312 32.144531 10.070312 32.339844 C 9.921875 32.390625 9.710938 32.261719 9.601562 32.386719 C 9.636719 32.519531 9.511719 32.757812 9.734375 32.769531 C 9.851562 32.78125 10.066406 32.699219 10.082031 32.890625 C 10.050781 33.832031 10.078125 34.777344 10.070312 35.722656 C 10.121094 35.855469 9.964844 36.191406 10.15625 36.179688 C 10.292969 36.164062 10.535156 36.289062 10.59375 36.117188 L 10.59375 32.757812 L 11.78125 32.757812 C 11.75 32.621094 11.871094 32.410156 11.730469 32.328125 C 11.347656 32.363281 10.957031 32.335938 10.570312 32.34375 C 10.554688 31.957031 10.566406 31.417969 10.996094 31.253906 C 11.324219 31.121094 11.691406 31.171875 12.027344 31.257812 C 11.996094 31.105469 12.136719 30.867188 11.964844 30.78125 C 11.742188 30.75 11.519531 30.726562 11.292969 30.738281 Z M 13.792969 32.230469 C 12.992188 32.160156 12.191406 32.773438 12.058594 33.570312 C 11.871094 34.34375 11.960938 35.265625 12.539062 35.859375 C 13.257812 36.519531 14.546875 36.464844 15.128906 35.640625 C 15.566406 35.03125 15.589844 34.222656 15.421875 33.519531 C 15.257812 32.808594 14.605469 32.238281 13.867188 32.234375 C 13.886719 32.238281 13.765625 32.226562 13.792969 32.230469 Z M 13.792969 32.660156 C 14.390625 32.648438 14.890625 33.183594 14.925781 33.765625 C 15.027344 34.398438 14.996094 35.171875 14.484375 35.628906 C 13.902344 36.105469 12.855469 35.867188 12.652344 35.105469 C 12.449219 34.503906 12.460938 33.804688 12.730469 33.226562 C 12.933594 32.84375 13.371094 32.632812 13.792969 32.660156 Z M 16.476562 32.328125 C 16.226562 32.300781 16.355469 32.617188 16.324219 32.753906 C 16.339844 33.570312 16.296875 34.398438 16.34375 35.207031 C 16.398438 35.710938 16.742188 36.203125 17.269531 36.277344 C 17.855469 36.398438 18.464844 36.132812 18.894531 35.738281 C 19.0625 35.730469 18.980469 35.988281 18.996094 36.085938 C 18.992188 36.285156 19.265625 36.175781 19.386719 36.183594 C 19.613281 36.234375 19.488281 35.953125 19.519531 35.808594 L 19.519531 32.351562 C 19.347656 32.386719 19.128906 32.253906 19 32.390625 C 18.992188 33.355469 19 34.324219 18.996094 35.292969 C 18.519531 35.671875 17.847656 35.980469 17.246094 35.710938 C 16.804688 35.4375 16.855469 34.84375 16.847656 34.394531 L 16.847656 32.351562 C 16.722656 32.363281 16.589844 32.332031 16.472656 32.332031 Z M 22.492188 32.234375 C 21.988281 32.257812 21.542969 32.542969 21.171875 32.863281 C 21.105469 32.691406 21.242188 32.46875 21.117188 32.332031 C 20.953125 32.371094 20.710938 32.25 20.621094 32.4375 C 20.664062 33.464844 20.625 34.5 20.636719 35.53125 C 20.664062 35.730469 20.585938 36.046875 20.675781 36.179688 C 20.835938 36.15625 21.0625 36.289062 21.160156 36.132812 C 21.164062 35.167969 21.160156 34.207031 21.160156 33.242188 C 21.644531 32.859375 22.34375 32.535156 22.941406 32.847656 C 23.351562 33.117188 23.292969 33.679688 23.308594 34.101562 L 23.308594 36.183594 C 23.480469 36.148438 23.699219 36.28125 23.828125 36.144531 C 23.816406 35.160156 23.878906 34.167969 23.792969 33.1875 C 23.707031 32.664062 23.238281 32.214844 22.683594 32.234375 C 22.621094 32.230469 22.554688 32.230469 22.492188 32.234375 Z M 27.644531 30.757812 C 27.398438 30.730469 27.523438 31.042969 27.492188 31.183594 C 27.480469 31.609375 27.519531 32.050781 27.476562 32.46875 C 27.304688 32.558594 27.148438 32.324219 26.972656 32.320312 C 26.222656 32.054688 25.277344 32.367188 24.929688 33.109375 C 24.527344 33.867188 24.566406 34.800781 24.910156 35.570312 C 25.183594 36.101562 25.808594 36.40625 26.382812 36.285156 C 26.804688 36.222656 27.175781 35.976562 27.484375 35.695312 C 27.550781 35.855469 27.410156 36.082031 27.539062 36.207031 C 27.703125 36.164062 27.945312 36.285156 28.035156 36.097656 C 27.992188 35.070312 28.03125 34.035156 28.015625 33.003906 L 28.015625 30.777344 C 27.894531 30.792969 27.757812 30.757812 27.644531 30.757812 Z M 26.460938 32.699219 C 26.816406 32.707031 27.230469 32.753906 27.492188 32.988281 C 27.484375 33.765625 27.515625 34.5625 27.480469 35.332031 C 27 35.726562 26.269531 36 25.691406 35.652344 C 25.175781 35.273438 25.175781 34.550781 25.203125 33.96875 C 25.242188 33.390625 25.632812 32.765625 26.257812 32.710938 C 26.324219 32.703125 26.394531 32.699219 26.460938 32.699219 Z M 30.195312 32.253906 C 29.863281 32.273438 29.523438 32.332031 29.207031 32.414062 C 29.234375 32.585938 29.132812 32.792969 29.230469 32.933594 C 29.875 32.714844 30.636719 32.539062 31.277344 32.871094 C 31.535156 33.050781 31.605469 33.398438 31.570312 33.695312 C 30.757812 33.777344 29.832031 33.691406 29.164062 34.25 C 28.570312 34.832031 28.824219 36.003906 29.644531 36.234375 C 30.289062 36.445312 30.980469 36.175781 31.480469 35.761719 C 31.652344 35.757812 31.546875 36.015625 31.570312 36.109375 C 31.554688 36.257812 31.761719 36.140625 31.847656 36.195312 C 31.964844 36.230469 32.152344 36.207031 32.09375 36.042969 C 32.074219 35.074219 32.140625 34.101562 32.054688 33.136719 C 31.933594 32.597656 31.378906 32.285156 30.859375 32.269531 C 30.636719 32.242188 30.414062 32.242188 30.195312 32.253906 Z M 31.574219 34.128906 C 31.554688 34.53125 31.613281 34.953125 31.542969 35.34375 C 31.046875 35.753906 30.300781 36.003906 29.695312 35.6875 C 29.203125 35.367188 29.328125 34.5 29.894531 34.332031 C 30.421875 34.105469 31.011719 34.152344 31.574219 34.085938 Z M 33.355469 31.179688 C 33.109375 31.152344 33.234375 31.464844 33.207031 31.605469 C 33.183594 31.839844 33.25 32.101562 33.179688 32.316406 C 33.058594 32.425781 32.835938 32.25 32.746094 32.378906 C 32.738281 32.527344 32.6875 32.835938 32.941406 32.773438 C 33.066406 32.703125 33.253906 32.765625 33.214844 32.933594 C 33.191406 33.488281 33.214844 34.042969 33.199219 34.601562 C 33.222656 35.089844 33.148438 35.6875 33.582031 36.03125 C 34.015625 36.382812 34.613281 36.277344 35.109375 36.171875 C 35.085938 36.027344 35.175781 35.851562 35.101562 35.726562 C 34.714844 35.847656 34.179688 35.941406 33.894531 35.578125 C 33.617188 35.164062 33.773438 34.632812 33.726562 34.167969 L 33.726562 32.757812 L 35.113281 32.757812 C 35.082031 32.621094 35.203125 32.410156 35.0625 32.328125 C 34.621094 32.363281 34.171875 32.332031 33.726562 32.34375 L 33.726562 31.203125 C 33.605469 31.214844 33.46875 31.183594 33.355469 31.179688 Z M 35.789062 30.964844 C 35.585938 31 35.742188 31.292969 35.691406 31.433594 C 35.722656 31.632812 36.113281 31.46875 36.292969 31.523438 C 36.265625 31.347656 36.378906 31.125 36.257812 30.976562 C 36.101562 31.003906 35.941406 30.949219 35.789062 30.964844 Z M 35.882812 32.332031 C 35.636719 32.300781 35.765625 32.617188 35.734375 32.753906 L 35.734375 36.183594 C 35.90625 36.148438 36.125 36.28125 36.253906 36.144531 C 36.261719 34.882812 36.253906 33.617188 36.257812 32.351562 C 36.132812 32.363281 36 32.332031 35.882812 32.332031 Z M 38.75 32.234375 C 37.929688 32.226562 37.214844 32.917969 37.132812 33.710938 C 36.988281 34.46875 37.101562 35.363281 37.707031 35.910156 C 38.472656 36.554688 39.808594 36.417969 40.316406 35.515625 C 40.6875 34.871094 40.707031 34.070312 40.484375 33.375 C 40.277344 32.714844 39.636719 32.226562 38.9375 32.234375 C 38.875 32.230469 38.8125 32.234375 38.75 32.234375 Z M 38.902344 32.660156 C 39.5 32.648438 40 33.183594 40.035156 33.765625 C 40.132812 34.398438 40.101562 35.171875 39.589844 35.628906 C 39.007812 36.105469 37.964844 35.867188 37.757812 35.105469 C 37.554688 34.503906 37.566406 33.804688 37.835938 33.226562 C 38.042969 32.84375 38.476562 32.632812 38.902344 32.660156 Z M 43.316406 32.234375 C 42.8125 32.257812 42.363281 32.542969 41.992188 32.863281 C 41.929688 32.691406 42.066406 32.46875 41.9375 32.332031 C 41.777344 32.371094 41.53125 32.25 41.441406 32.4375 C 41.488281 33.464844 41.449219 34.5 41.460938 35.53125 C 41.488281 35.730469 41.410156 36.046875 41.5 36.179688 C 41.65625 36.15625 41.886719 36.289062 41.984375 36.132812 C 41.984375 35.167969 41.984375 34.207031 41.984375 33.242188 C 42.464844 32.859375 43.167969 32.535156 43.765625 32.847656 C 44.171875 33.117188 44.117188 33.679688 44.132812 34.101562 L 44.132812 36.183594 C 44.304688 36.148438 44.523438 36.28125 44.652344 36.144531 C 44.636719 35.160156 44.699219 34.167969 44.613281 33.1875 C 44.527344 32.664062 44.054688 32.214844 43.507812 32.234375 C 43.441406 32.230469 43.378906 32.230469 43.316406 32.234375 Z M 43.316406 32.234375 "/>
    <path style=" stroke:none;fill-rule:nonzero;fill:rgb(81.176471%,9.411765%,99.215686%);fill-opacity:1;" d="M 6.410156 24.894531 C 6.410156 26.519531 5.09375 27.832031 3.472656 27.832031 C 1.851562 27.832031 0.535156 26.519531 0.535156 24.894531 C 0.535156 23.273438 1.851562 21.957031 3.472656 21.957031 C 5.09375 21.957031 6.410156 23.273438 6.410156 24.894531 "/>
  </g>
</svg>